<svg xmlns="http://www.w3.org/2000/svg" xmlns:xlink="http://www.w3.org/1999/xlink" width="500" zoomAndPan="magnify" viewBox="0 0 375 374.999991" height="500" preserveAspectRatio="xMidYMid meet" version="1.2"><defs><clipPath id="ea840fea05"><path d="M 187.5 0 C 83.945312 0 0 83.945312 0 187.5 C 0 291.054688 83.945312 375 187.5 375 C 291.054688 375 375 291.054688 375 187.5 C 375 83.945312 291.054688 0 187.5 0 Z M 187.5 0 "/></clipPath><clipPath id="07d34d48ce"><path d="M 0 186 L 374.960938 186 L 374.960938 275.144531 L 0 275.144531 Z M 0 186 "/></clipPath><clipPath id="ea7cefa510"><path d="M 193 115.78125 L 359 115.78125 L 359 226 L 193 226 Z M 193 115.78125 "/></clipPath><clipPath id="c509027cfe"><path d="M 16 115.78125 L 182 115.78125 L 182 226 L 16 226 Z M 16 115.78125 "/></clipPath></defs><g id="1c6522a447"><g clip-rule="nonzero" clip-path="url(#ea840fea05)"><rect x="0" width="375" y="0" height="374.999991" style="fill:#94eab1;fill-opacity:1;stroke:none;"/></g><g clip-rule="nonzero" clip-path="url(#07d34d48ce)"><path style=" stroke:none;fill-rule:nonzero;fill:#245d3b;fill-opacity:1;" d="M 332.652344 197.964844 C 325.617188 199.945312 318.59375 201.957031 311.585938 204.039062 L 290.5625 210.222656 C 276.589844 214.496094 262.574219 218.625 248.640625 223.003906 C 234.710938 227.402344 220.734375 231.652344 206.847656 236.167969 L 202.0625 237.71875 L 203.613281 242.550781 C 204.023438 243.839844 204.28125 245.15625 204.382812 246.480469 L 204.429688 247.425781 C 204.445312 247.886719 204.410156 248.09375 204.394531 248.472656 C 204.367188 249.140625 204.324219 249.8125 204.1875 250.464844 C 204.023438 251.789062 203.582031 253.054688 203.117188 254.289062 C 202.574219 255.5 201.949219 256.683594 201.144531 257.738281 C 200.386719 258.832031 199.429688 259.773438 198.4375 260.652344 C 197.941406 261.089844 197.375 261.445312 196.851562 261.855469 C 196.265625 262.164062 195.738281 262.578125 195.125 262.832031 C 193.945312 263.421875 192.699219 263.898438 191.414062 264.175781 C 190.734375 264.390625 190.25 264.371094 189.6875 264.5 C 189.488281 264.574219 188.898438 264.558594 188.511719 264.589844 L 187.863281 264.617188 L 187.539062 264.636719 L 187.414062 264.640625 C 186.109375 264.59375 184.808594 264.507812 183.546875 264.1875 C 182.253906 263.90625 181.011719 263.429688 179.828125 262.84375 C 179.21875 262.582031 178.6875 262.167969 178.101562 261.859375 C 177.582031 261.453125 177.015625 261.097656 176.519531 260.652344 C 175.523438 259.777344 174.566406 258.832031 173.808594 257.738281 C 173.003906 256.683594 172.382812 255.5 171.839844 254.292969 C 171.640625 253.660156 171.320312 253.0625 171.191406 252.410156 C 171.015625 251.761719 170.832031 251.109375 170.78125 250.585938 C 170.738281 250.285156 170.667969 250.078125 170.628906 249.699219 L 170.519531 247.753906 L 170.519531 247.472656 L 170.566406 246.480469 C 170.671875 245.152344 170.929688 243.839844 171.339844 242.550781 L 172.890625 237.734375 L 168.109375 236.171875 C 161.167969 233.898438 154.191406 231.746094 147.222656 229.5625 L 126.3125 223.011719 C 119.351562 220.808594 112.351562 218.71875 105.363281 216.597656 L 84.390625 210.238281 L 63.367188 204.050781 C 56.359375 201.96875 49.335938 199.960938 42.304688 197.972656 C 35.28125 195.964844 28.246094 193.972656 21.191406 192.054688 C 14.152344 190.082031 7.070312 188.234375 0 186.359375 C 6.808594 189.035156 13.601562 191.746094 20.441406 194.324219 C 27.269531 196.960938 34.113281 199.515625 40.964844 202.058594 C 47.808594 204.621094 54.660156 207.164062 61.539062 209.628906 L 82.144531 217.097656 L 102.804688 224.398438 C 109.691406 226.824219 116.570312 229.285156 123.488281 231.628906 L 144.214844 238.738281 C 149.683594 240.613281 155.148438 242.488281 160.628906 244.328125 C 160.574219 244.769531 160.472656 245.203125 160.4375 245.648438 C 160.394531 246.179688 160.363281 246.714844 160.347656 247.25 L 160.34375 247.652344 L 160.355469 248.269531 L 160.386719 248.917969 L 160.441406 250.21875 C 160.480469 250.699219 160.578125 251.347656 160.65625 251.90625 C 160.964844 254.273438 161.582031 256.15625 162.355469 258.203125 C 163.191406 260.171875 164.199219 262.074219 165.46875 263.796875 C 166.691406 265.550781 168.183594 267.101562 169.78125 268.515625 C 170.582031 269.230469 171.464844 269.839844 172.324219 270.472656 C 173.246094 271.023438 174.125 271.644531 175.097656 272.101562 C 177 273.078125 179.019531 273.855469 181.109375 274.34375 C 183.195312 274.882812 185.339844 275.082031 187.480469 275.144531 L 189.042969 275.070312 C 189.519531 275.027344 189.800781 275.058594 190.460938 274.957031 C 191.597656 274.78125 192.867188 274.652344 193.851562 274.347656 C 195.941406 273.863281 197.960938 273.082031 199.863281 272.105469 C 200.835938 271.648438 201.714844 271.027344 202.636719 270.480469 C 203.492188 269.847656 204.378906 269.234375 205.175781 268.523438 C 206.777344 267.105469 208.273438 265.558594 209.492188 263.796875 C 210.761719 262.074219 211.773438 260.171875 212.609375 258.203125 C 213.371094 256.210938 214.015625 254.152344 214.292969 252.027344 C 214.480469 250.976562 214.554688 249.910156 214.582031 248.847656 C 214.605469 248.355469 214.632812 247.703125 214.617188 247.296875 C 214.601562 246.6875 214.570312 246.1875 214.527344 245.648438 C 214.488281 245.199219 214.390625 244.765625 214.335938 244.320312 C 226.734375 240.167969 239.085938 235.859375 251.472656 231.636719 C 265.292969 226.914062 279.035156 221.945312 292.824219 217.113281 L 313.425781 209.648438 C 320.300781 207.171875 327.15625 204.636719 334 202.070312 C 340.847656 199.523438 347.691406 196.964844 354.515625 194.332031 C 361.351562 191.75 368.152344 189.042969 374.960938 186.359375 C 367.882812 188.234375 360.804688 190.078125 353.765625 192.042969 C 346.710938 193.960938 339.679688 195.957031 332.652344 197.964844 "/></g><g clip-rule="nonzero" clip-path="url(#ea7cefa510)"><path style=" stroke:none;fill-rule:nonzero;fill:#48aa43;fill-opacity:1;" d="M 304.566406 115.804688 L 193.953125 150.105469 L 193.953125 225.425781 L 358.730469 169.96875 L 304.566406 115.804688 "/></g><g clip-rule="nonzero" clip-path="url(#c509027cfe)"><path style=" stroke:none;fill-rule:nonzero;fill:#48aa43;fill-opacity:1;" d="M 16.226562 169.96875 L 181.003906 225.425781 L 181.003906 150.105469 L 70.390625 115.804688 L 16.226562 169.96875 "/></g></g></svg>