<svg xmlns="http://www.w3.org/2000/svg" xmlns:xlink="http://www.w3.org/1999/xlink" width="1920" zoomAndPan="magnify" viewBox="0 0 1440 809.999993" height="1080" preserveAspectRatio="xMidYMid meet" version="1.2"><defs/><g id="df0fe03fa3"><g style="fill:#ffffff;fill-opacity:1;"><g transform="translate(196.658418, 452.624997)"><path style="stroke:none" d="M 30.890625 -89.765625 L 30.890625 -56.046875 L 67.96875 -56.046875 L 67.96875 -45.640625 L 30.890625 -45.640625 L 30.890625 -10.109375 L 76.390625 -10.109375 L 76.390625 0 L 18.25 0 L 18.25 -100.09375 L 75.09375 -100.09375 L 73.625 -89.765625 Z M 30.890625 -89.765625 "/></g></g><g style="fill:#ffffff;fill-opacity:1;"><g transform="translate(283.881059, 452.624997)"><path style="stroke:none" d="M 52.046875 -101.6875 C 58.585938 -101.6875 64.0625 -100.863281 68.46875 -99.21875 C 72.882812 -97.570312 77.078125 -95.148438 81.046875 -91.953125 L 74 -83.734375 C 70.84375 -86.398438 67.507812 -88.300781 64 -89.4375 C 60.488281 -90.582031 56.816406 -91.15625 52.984375 -91.15625 C 47.515625 -91.15625 42.453125 -89.859375 37.796875 -87.265625 C 33.140625 -84.671875 29.394531 -80.378906 26.5625 -74.390625 C 23.726562 -68.410156 22.3125 -60.304688 22.3125 -50.078125 C 22.3125 -40.148438 23.65625 -32.179688 26.34375 -26.171875 C 29.039062 -20.160156 32.6875 -15.820312 37.28125 -13.15625 C 41.882812 -10.488281 47.023438 -9.15625 52.703125 -9.15625 C 58.316406 -9.15625 62.925781 -10.003906 66.53125 -11.703125 C 70.144531 -13.398438 73.285156 -15.335938 75.953125 -17.515625 L 82.5 -9.234375 C 79.445312 -6.273438 75.472656 -3.71875 70.578125 -1.5625 C 65.679688 0.59375 59.671875 1.671875 52.546875 1.671875 C 44.460938 1.671875 37.132812 -0.3125 30.5625 -4.28125 C 24 -8.257812 18.800781 -14.085938 14.96875 -21.765625 C 11.144531 -29.453125 9.234375 -38.890625 9.234375 -50.078125 C 9.234375 -61.316406 11.179688 -70.765625 15.078125 -78.421875 C 18.984375 -86.085938 24.191406 -91.878906 30.703125 -95.796875 C 37.222656 -99.722656 44.335938 -101.6875 52.046875 -101.6875 Z M 52.046875 -101.6875 "/></g></g><g style="fill:#ffffff;fill-opacity:1;"><g transform="translate(371.103699, 452.624997)"><path style="stroke:none" d="M 80.46875 -49.9375 C 80.46875 -39.851562 79.097656 -30.921875 76.359375 -23.140625 C 73.617188 -15.367188 69.507812 -9.289062 64.03125 -4.90625 C 58.5625 -0.519531 51.753906 1.671875 43.609375 1.671875 C 35.515625 1.671875 28.71875 -0.46875 23.21875 -4.75 C 17.71875 -9.039062 13.597656 -15.039062 10.859375 -22.75 C 8.128906 -30.457031 6.765625 -39.472656 6.765625 -49.796875 C 6.765625 -59.921875 8.128906 -68.882812 10.859375 -76.6875 C 13.597656 -84.488281 17.71875 -90.601562 23.21875 -95.03125 C 28.71875 -99.46875 35.515625 -101.6875 43.609375 -101.6875 C 51.753906 -101.6875 58.5625 -99.53125 64.03125 -95.21875 C 69.507812 -90.90625 73.617188 -84.867188 76.359375 -77.109375 C 79.097656 -69.359375 80.46875 -60.300781 80.46875 -49.9375 Z M 67.234375 -49.9375 C 67.234375 -63.257812 65.40625 -73.457031 61.75 -80.53125 C 58.09375 -87.613281 52.046875 -91.15625 43.609375 -91.15625 C 35.179688 -91.15625 29.132812 -87.59375 25.46875 -80.46875 C 21.8125 -73.34375 19.984375 -63.117188 19.984375 -49.796875 C 19.984375 -36.460938 21.875 -26.316406 25.65625 -19.359375 C 29.4375 -12.410156 35.421875 -8.9375 43.609375 -8.9375 C 52.046875 -8.9375 58.09375 -12.4375 61.75 -19.4375 C 65.40625 -26.445312 67.234375 -36.613281 67.234375 -49.9375 Z M 67.234375 -49.9375 "/></g></g><g style="fill:#ffffff;fill-opacity:1;"><g transform="translate(458.326328, 452.624997)"><path style="stroke:none" d=""/></g></g><g style="fill:#ffffff;fill-opacity:1;"><g transform="translate(545.54898, 452.624997)"><path style="stroke:none" d="M 30.890625 -89.765625 L 30.890625 -56.046875 L 67.96875 -56.046875 L 67.96875 -45.640625 L 30.890625 -45.640625 L 30.890625 -10.109375 L 76.390625 -10.109375 L 76.390625 0 L 18.25 0 L 18.25 -100.09375 L 75.09375 -100.09375 L 73.625 -89.765625 Z M 30.890625 -89.765625 "/></g></g><g style="fill:#ffffff;fill-opacity:1;"><g transform="translate(632.771632, 452.624997)"><path style="stroke:none" d="M 7.203125 -100.09375 L 21.65625 -100.09375 L 43.609375 -61.640625 L 65.640625 -100.09375 L 79.296875 -100.09375 L 50.875 -54 L 82.71875 0 L 68.25 0 L 43.328125 -45.21875 L 18.09375 0 L 4.5 0 L 35.90625 -53.359375 Z M 7.203125 -100.09375 "/></g></g><g style="fill:#ffffff;fill-opacity:1;"><g transform="translate(719.994238, 452.624997)"><path style="stroke:none" d="M 30.890625 -89.765625 L 30.890625 -56.046875 L 67.96875 -56.046875 L 67.96875 -45.640625 L 30.890625 -45.640625 L 30.890625 -10.109375 L 76.390625 -10.109375 L 76.390625 0 L 18.25 0 L 18.25 -100.09375 L 75.09375 -100.09375 L 73.625 -89.765625 Z M 30.890625 -89.765625 "/></g></g><g style="fill:#ffffff;fill-opacity:1;"><g transform="translate(807.21689, 452.624997)"><path style="stroke:none" d="M 52.046875 -101.6875 C 58.585938 -101.6875 64.0625 -100.863281 68.46875 -99.21875 C 72.882812 -97.570312 77.078125 -95.148438 81.046875 -91.953125 L 74 -83.734375 C 70.84375 -86.398438 67.507812 -88.300781 64 -89.4375 C 60.488281 -90.582031 56.816406 -91.15625 52.984375 -91.15625 C 47.515625 -91.15625 42.453125 -89.859375 37.796875 -87.265625 C 33.140625 -84.671875 29.394531 -80.378906 26.5625 -74.390625 C 23.726562 -68.410156 22.3125 -60.304688 22.3125 -50.078125 C 22.3125 -40.148438 23.65625 -32.179688 26.34375 -26.171875 C 29.039062 -20.160156 32.6875 -15.820312 37.28125 -13.15625 C 41.882812 -10.488281 47.023438 -9.15625 52.703125 -9.15625 C 58.316406 -9.15625 62.925781 -10.003906 66.53125 -11.703125 C 70.144531 -13.398438 73.285156 -15.335938 75.953125 -17.515625 L 82.5 -9.234375 C 79.445312 -6.273438 75.472656 -3.71875 70.578125 -1.5625 C 65.679688 0.59375 59.671875 1.671875 52.546875 1.671875 C 44.460938 1.671875 37.132812 -0.3125 30.5625 -4.28125 C 24 -8.257812 18.800781 -14.085938 14.96875 -21.765625 C 11.144531 -29.453125 9.234375 -38.890625 9.234375 -50.078125 C 9.234375 -61.316406 11.179688 -70.765625 15.078125 -78.421875 C 18.984375 -86.085938 24.191406 -91.878906 30.703125 -95.796875 C 37.222656 -99.722656 44.335938 -101.6875 52.046875 -101.6875 Z M 52.046875 -101.6875 "/></g></g><g style="fill:#ffffff;fill-opacity:1;"><g transform="translate(894.439541, 452.624997)"><path style="stroke:none" d="M 76.6875 -100.09375 L 76.6875 -32.421875 C 76.6875 -25.679688 75.316406 -19.742188 72.578125 -14.609375 C 69.835938 -9.472656 65.984375 -5.472656 61.015625 -2.609375 C 56.054688 0.242188 50.207031 1.671875 43.46875 1.671875 C 36.582031 1.671875 30.679688 0.226562 25.765625 -2.65625 C 20.847656 -5.539062 17.082031 -9.550781 14.46875 -14.6875 C 11.851562 -19.820312 10.546875 -25.734375 10.546875 -32.421875 L 10.546875 -100.09375 L 23.046875 -100.09375 L 23.046875 -31.984375 C 23.046875 -24.378906 24.828125 -18.6875 28.390625 -14.90625 C 31.953125 -11.125 36.976562 -9.234375 43.46875 -9.234375 C 50.007812 -9.234375 55.0625 -11.125 58.625 -14.90625 C 62.1875 -18.6875 63.96875 -24.378906 63.96875 -31.984375 L 63.96875 -100.09375 Z M 76.6875 -100.09375 "/></g></g><g style="fill:#ffffff;fill-opacity:1;"><g transform="translate(981.662193, 452.624997)"><path style="stroke:none" d="M 49.640625 -89.265625 L 49.640625 0 L 37.078125 0 L 37.078125 -89.265625 L 5.8125 -89.265625 L 5.8125 -100.09375 L 81.34375 -100.09375 L 80.03125 -89.265625 Z M 49.640625 -89.265625 "/></g></g><g style="fill:#ffffff;fill-opacity:1;"><g transform="translate(1068.884845, 452.624997)"><path style="stroke:none" d="M 80.46875 -49.9375 C 80.46875 -39.851562 79.097656 -30.921875 76.359375 -23.140625 C 73.617188 -15.367188 69.507812 -9.289062 64.03125 -4.90625 C 58.5625 -0.519531 51.753906 1.671875 43.609375 1.671875 C 35.515625 1.671875 28.71875 -0.46875 23.21875 -4.75 C 17.71875 -9.039062 13.597656 -15.039062 10.859375 -22.75 C 8.128906 -30.457031 6.765625 -39.472656 6.765625 -49.796875 C 6.765625 -59.921875 8.128906 -68.882812 10.859375 -76.6875 C 13.597656 -84.488281 17.71875 -90.601562 23.21875 -95.03125 C 28.71875 -99.46875 35.515625 -101.6875 43.609375 -101.6875 C 51.753906 -101.6875 58.5625 -99.53125 64.03125 -95.21875 C 69.507812 -90.90625 73.617188 -84.867188 76.359375 -77.109375 C 79.097656 -69.359375 80.46875 -60.300781 80.46875 -49.9375 Z M 67.234375 -49.9375 C 67.234375 -63.257812 65.40625 -73.457031 61.75 -80.53125 C 58.09375 -87.613281 52.046875 -91.15625 43.609375 -91.15625 C 35.179688 -91.15625 29.132812 -87.59375 25.46875 -80.46875 C 21.8125 -73.34375 19.984375 -63.117188 19.984375 -49.796875 C 19.984375 -36.460938 21.875 -26.316406 25.65625 -19.359375 C 29.4375 -12.410156 35.421875 -8.9375 43.609375 -8.9375 C 52.046875 -8.9375 58.09375 -12.4375 61.75 -19.4375 C 65.40625 -26.445312 67.234375 -36.613281 67.234375 -49.9375 Z M 67.234375 -49.9375 "/></g></g><g style="fill:#ffffff;fill-opacity:1;"><g transform="translate(1156.107497, 452.624997)"><path style="stroke:none" d="M 78.140625 -72.03125 C 78.140625 -67.039062 77.0625 -62.679688 74.90625 -58.953125 C 72.75 -55.222656 69.828125 -52.144531 66.140625 -49.71875 C 62.460938 -47.289062 58.320312 -45.519531 53.71875 -44.40625 L 83.375 0 L 68.25 0 L 40.921875 -42.953125 L 27.40625 -42.953125 L 27.40625 0 L 14.75 0 L 14.75 -100.09375 L 40.484375 -100.09375 C 52.835938 -100.09375 62.203125 -97.726562 68.578125 -93 C 74.953125 -88.28125 78.140625 -81.289062 78.140625 -72.03125 Z M 64.625 -72.03125 C 64.625 -78.476562 62.78125 -83.09375 59.09375 -85.875 C 55.414062 -88.664062 49.695312 -90.0625 41.9375 -90.0625 L 27.40625 -90.0625 L 27.40625 -52.84375 L 41.9375 -52.84375 C 49.113281 -52.84375 54.6875 -54.304688 58.65625 -57.234375 C 62.632812 -60.171875 64.625 -65.101562 64.625 -72.03125 Z M 64.625 -72.03125 "/></g></g></g></svg>